<svg width="2328" height="640" viewBox="0 0 2328 640" fill="none" xmlns="http://www.w3.org/2000/svg">
<path d="M327.136 48.457V0.776855C417.873 5.40031 476.197 40.751 494.017 57.8485C488.237 117.954 540.733 132.499 567.704 132.258C612.783 186.585 623.09 264.703 622.608 296.971H575.651L571.316 264.462L455.728 283.967C353.433 283.389 336.528 206.186 340.863 167.657L359.646 52.7915L327.136 48.457Z" fill="#F5B40A"/>
<circle cx="558.312" cy="67.9623" r="53.4594" fill="#F5B40A"/>
<path d="M48.6224 296.971H0.942261C5.56572 206.234 40.9165 147.91 58.0139 130.091C118.12 135.87 132.664 83.3738 132.424 56.4033C186.75 11.324 264.868 1.0174 297.136 1.49902V48.4566L264.627 52.7912L284.133 168.379C283.555 270.674 206.352 287.579 167.822 283.245L52.9569 264.462L48.6224 296.971Z" fill="#2196F3"/>
<circle cx="68.128" cy="65.7945" r="53.4594" transform="rotate(-90 68.128 65.7945)" fill="#2196F3"/>
<path d="M574.923 343.679H622.603C617.98 434.415 582.629 492.739 565.531 510.559C505.426 504.779 490.881 557.276 491.122 584.246C436.795 629.325 358.677 639.632 326.409 639.15V592.193L358.918 587.858L339.412 472.27C339.99 369.975 417.194 353.07 455.723 357.405L570.588 376.188L574.923 343.679Z" fill="#E51111"/>
<circle cx="555.417" cy="574.855" r="53.4594" transform="rotate(90 555.417 574.855)" fill="#E51111"/>
<path d="M296.409 591.486V639.166C205.672 634.543 147.349 599.192 129.529 582.094C135.308 521.989 82.812 507.444 55.8415 507.685C10.7622 453.358 0.455627 375.24 0.937256 342.972H47.8949L52.2294 375.481L167.817 355.975C270.113 356.553 287.017 433.757 282.683 472.286L263.9 587.151L296.409 591.486Z" fill="#8BC34A"/>
<circle cx="65.233" cy="571.98" r="53.4594" transform="rotate(-180 65.233 571.98)" fill="#8BC34A"/>
<path d="M911.961 248.315H843.68V433.472H788.836V248.315H721.805V205.972H911.961V248.315ZM1125.24 433.472H1070.71L990.086 291.909V433.472H935.242V205.972H990.086L1070.55 347.534V205.972H1125.24V433.472Z" fill="#2196F3"/>
<path d="M1344.02 362.534C1341.42 386.493 1332.83 404.826 1318.24 417.534C1303.76 430.243 1284.44 436.597 1260.27 436.597C1243.4 436.597 1228.45 432.378 1215.43 423.94C1202.51 415.503 1192.51 403.576 1185.43 388.159C1178.35 372.638 1174.75 354.93 1174.65 335.034V305.503C1174.65 285.295 1178.19 267.378 1185.27 251.753C1192.36 236.128 1202.51 224.097 1215.74 215.659C1229.08 207.118 1244.39 202.847 1261.68 202.847C1286.05 202.847 1305.27 209.461 1319.34 222.69C1333.5 235.815 1341.73 253.993 1344.02 277.222H1324.65C1319.86 238.576 1298.87 219.253 1261.68 219.253C1241.05 219.253 1224.6 226.961 1212.3 242.378C1200.12 257.795 1194.02 279.097 1194.02 306.284V334.097C1194.02 360.347 1199.96 381.284 1211.84 396.909C1223.82 412.534 1239.96 420.347 1260.27 420.347C1280.38 420.347 1295.53 415.555 1305.74 405.972C1315.95 396.284 1322.25 381.805 1324.65 362.534H1344.02ZM1376.05 346.44C1376.05 330.19 1379.18 315.555 1385.43 302.534C1391.78 289.513 1400.69 279.409 1412.15 272.222C1423.71 264.93 1436.78 261.284 1451.37 261.284C1473.87 261.284 1492.1 269.201 1506.05 285.034C1520.01 300.763 1526.99 321.649 1526.99 347.69V351.597C1526.99 367.951 1523.82 382.69 1517.46 395.815C1511.21 408.836 1502.36 418.888 1490.9 425.972C1479.44 433.055 1466.37 436.597 1451.68 436.597C1429.28 436.597 1411.05 428.732 1396.99 413.003C1383.03 397.17 1376.05 376.232 1376.05 350.19V346.44ZM1394.8 351.597C1394.8 371.805 1400.01 388.42 1410.43 401.44C1420.95 414.357 1434.7 420.815 1451.68 420.815C1468.55 420.815 1482.2 414.357 1492.62 401.44C1503.14 388.42 1508.4 371.284 1508.4 350.034V346.44C1508.4 333.524 1506 321.701 1501.21 310.972C1496.42 300.243 1489.7 291.961 1481.05 286.128C1472.41 280.19 1462.51 277.222 1451.37 277.222C1434.7 277.222 1421.11 283.784 1410.59 296.909C1400.07 309.93 1394.8 327.013 1394.8 348.159V351.597ZM1583.55 264.409L1584.18 293.315C1590.53 282.899 1598.45 274.982 1607.93 269.565C1617.41 264.045 1627.88 261.284 1639.34 261.284C1657.46 261.284 1670.95 266.388 1679.8 276.597C1688.66 286.805 1693.14 302.118 1693.24 322.534V433.472H1674.65V322.378C1674.54 307.274 1671.32 296.024 1664.96 288.628C1658.71 281.232 1648.66 277.534 1634.8 277.534C1623.24 277.534 1612.98 281.18 1604.02 288.472C1595.17 295.659 1588.61 305.399 1584.34 317.69V433.472H1565.74V264.409H1583.55ZM1759.49 264.409L1760.12 293.315C1766.47 282.899 1774.39 274.982 1783.87 269.565C1793.35 264.045 1803.82 261.284 1815.27 261.284C1833.4 261.284 1846.89 266.388 1855.74 276.597C1864.6 286.805 1869.08 302.118 1869.18 322.534V433.472H1850.59V322.378C1850.48 307.274 1847.25 296.024 1840.9 288.628C1834.65 281.232 1824.6 277.534 1810.74 277.534C1799.18 277.534 1788.92 281.18 1779.96 288.472C1771.11 295.659 1764.54 305.399 1760.27 317.69V433.472H1741.68V264.409H1759.49ZM1983.09 436.597C1968.71 436.597 1955.69 433.055 1944.02 425.972C1932.46 418.888 1923.45 409.045 1916.99 396.44C1910.53 383.732 1907.3 369.513 1907.3 353.784V347.065C1907.3 330.815 1910.43 316.18 1916.68 303.159C1923.03 290.138 1931.84 279.93 1943.09 272.534C1954.34 265.034 1966.52 261.284 1979.65 261.284C2000.17 261.284 2016.42 268.315 2028.4 282.378C2040.48 296.336 2046.52 315.451 2046.52 339.722V350.19H1925.9V353.784C1925.9 372.951 1931.37 388.94 1942.3 401.753C1953.35 414.461 1967.2 420.815 1983.87 420.815C1993.87 420.815 2002.67 418.993 2010.27 415.347C2017.98 411.701 2024.96 405.868 2031.21 397.847L2042.93 406.753C2029.18 426.649 2009.23 436.597 1983.09 436.597ZM1979.65 277.222C1965.59 277.222 1953.71 282.378 1944.02 292.69C1934.44 303.003 1928.61 316.857 1926.52 334.253H2027.93V332.222C2027.41 315.972 2022.77 302.743 2014.02 292.534C2005.27 282.326 1993.82 277.222 1979.65 277.222ZM2145.43 420.815C2158.45 420.815 2169.34 417.17 2178.09 409.878C2186.94 402.482 2191.73 392.951 2192.46 381.284H2210.43C2209.91 391.597 2206.68 401.024 2200.74 409.565C2194.8 418.003 2186.89 424.618 2176.99 429.409C2167.2 434.201 2156.68 436.597 2145.43 436.597C2123.24 436.597 2105.64 428.888 2092.62 413.472C2079.7 398.055 2073.24 377.326 2073.24 351.284V345.659C2073.24 328.993 2076.16 314.253 2081.99 301.44C2087.83 288.628 2096.16 278.732 2106.99 271.753C2117.93 264.774 2130.69 261.284 2145.27 261.284C2163.82 261.284 2179.08 266.805 2191.05 277.847C2203.14 288.888 2209.6 303.42 2210.43 321.44H2192.46C2191.63 308.211 2186.84 297.534 2178.09 289.409C2169.44 281.284 2158.5 277.222 2145.27 277.222C2128.4 277.222 2115.27 283.315 2105.9 295.503C2096.63 307.69 2091.99 324.774 2091.99 346.753V352.222C2091.99 373.784 2096.63 390.607 2105.9 402.69C2115.27 414.774 2128.45 420.815 2145.43 420.815ZM2276.99 221.128V264.409H2311.99V279.722H2276.99V392.378C2276.99 401.753 2278.66 408.732 2281.99 413.315C2285.43 417.899 2291.11 420.19 2299.02 420.19C2302.15 420.19 2307.2 419.67 2314.18 418.628L2314.96 433.94C2310.07 435.711 2303.4 436.597 2294.96 436.597C2282.15 436.597 2272.83 432.899 2266.99 425.503C2261.16 418.003 2258.24 407.013 2258.24 392.534V279.722H2227.15V264.409H2258.24V221.128H2276.99Z" fill="#2196F3"/>
</svg>
