<svg width="623" height="639" viewBox="0 0 623 639" fill="none" xmlns="http://www.w3.org/2000/svg">
<path d="M327.114 47.9858V0.305664C417.85 4.92912 476.174 40.2799 493.994 57.3773C488.215 117.483 540.711 132.028 567.681 131.787C612.761 186.113 623.067 264.232 622.586 296.5H575.628L571.293 263.991L455.705 283.496C353.41 282.918 336.505 205.715 340.84 167.186L359.623 52.3203L327.114 47.9858Z" fill="#F5B40A"/>
<circle cx="558.29" cy="67.4916" r="53.4594" fill="#F5B40A"/>
<path d="M48.5999 296.5H0.919678C5.54313 205.763 40.8939 147.44 57.9913 129.62C118.097 135.399 132.642 82.9031 132.401 55.9326C186.727 10.8533 264.846 0.546692 297.114 1.02832V47.9859L264.605 52.3205L284.11 167.908C283.532 270.204 206.329 287.108 167.8 282.774L52.9343 263.991L48.5999 296.5Z" fill="#2196F3"/>
<circle cx="68.1054" cy="65.3238" r="53.4594" transform="rotate(-90 68.1054 65.3238)" fill="#2196F3"/>
<path d="M574.9 343.207H622.58C617.957 433.944 582.606 492.267 565.509 510.087C505.403 504.308 490.858 556.804 491.099 583.774C436.773 628.854 358.654 639.16 326.386 638.679V591.721L358.895 587.387L339.39 471.799C339.968 369.503 417.171 352.599 455.7 356.933L570.566 375.716L574.9 343.207Z" fill="#E51111"/>
<circle cx="555.395" cy="574.383" r="53.4594" transform="rotate(90 555.395 574.383)" fill="#E51111"/>
<path d="M296.386 591.014V638.694C205.65 634.071 147.326 598.72 129.506 581.623C135.285 521.517 82.7892 506.972 55.8187 507.213C10.7394 452.887 0.4328 374.768 0.914429 342.5H47.872L52.2066 375.009L167.795 355.504C270.09 356.082 286.995 433.285 282.66 471.814L263.877 586.68L296.386 591.014Z" fill="#8BC34A"/>
<circle cx="65.2102" cy="571.508" r="53.4594" transform="rotate(-180 65.2102 571.508)" fill="#8BC34A"/>
</svg>
