<svg width="1185" height="401" viewBox="0 0 1185 401" fill="none" xmlns="http://www.w3.org/2000/svg">
<g clip-path="url(#clip0)">
<path fill-rule="evenodd" clip-rule="evenodd" d="M1034.39 20.4064C1027.91 30.92 1028.68 57.5886 1037.05 59.4677C1040.38 60.217 1047.49 58.3815 1054.72 54.5824L1050.18 82.5723H1076.99L1067.76 45.0868C1072.91 39.8222 1076.39 33.3704 1075.81 26.1411C1074.13 5.31031 1040.86 9.89282 1034.39 20.4064Z" fill="#D4A181"/>
<path fill-rule="evenodd" clip-rule="evenodd" d="M1042.36 0.808594C1036.2 0.808594 1031.19 5.16656 1031.19 10.5424C1031.19 15.7412 1035.87 19.9881 1041.76 20.2621C1045.13 21.1678 1049.45 21.8327 1054.25 22.1131C1053.79 23.6389 1053.53 25.3739 1053.53 27.3347C1053.53 29.0656 1053.75 30.9012 1054.16 32.7651C1055.2 31.6868 1056.59 30.9834 1058 30.9834C1061.95 30.9834 1064.7 33.816 1064.7 36.8236C1064.7 40.6407 1062.17 43.4021 1058.48 43.623C1061.81 49.1834 1066.4 53.3711 1071 53.3711C1079.72 53.3711 1085.92 43.2064 1085.92 32.2775C1085.92 31.8937 1085.91 31.5125 1085.9 31.1341C1095.12 36.652 1102.24 47.5308 1114.45 47.5308C1131.06 47.5308 1137.66 18.3294 1114.45 18.3294C1098.66 18.3294 1090.9 20.3353 1084.21 23.3014C1082.89 20.0583 1080.87 17.3321 1078.41 15.4284C1077.82 14.8467 1076.91 14.2902 1075.74 13.7745L1075.49 13.6598C1074.86 13.3729 1074.2 13.1353 1073.53 12.951C1069.5 11.6576 1063.65 10.7448 1057.12 10.5459C1055.9 10.5088 1054.7 10.498 1053.53 10.5117C1053.51 5.14969 1048.52 0.808594 1042.36 0.808594Z" fill="#4A312C"/>
<path fill-rule="evenodd" clip-rule="evenodd" d="M1085.92 163.363L1043.89 283.112L1023.53 384.951H1007.57L1029.08 163.363H1085.92Z" fill="#D4A181"/>
<path fill-rule="evenodd" clip-rule="evenodd" d="M1085.92 163.363L1043.89 283.112L1023.53 384.951H1007.57L1029.08 163.363H1085.92Z" fill="black" fill-opacity="0.1"/>
<path fill-rule="evenodd" clip-rule="evenodd" d="M1100.96 163.363C1098.1 229.112 1101.46 263.026 1102.1 269C1102.74 274.973 1111.49 313.706 1132.2 386.956L1115.19 381.865C1082.46 314.683 1071.3 279.768 1067.55 270.946C1063.79 262.125 1053.82 226.263 1037.64 163.363H1100.96Z" fill="#D4A181"/>
<path fill-rule="evenodd" clip-rule="evenodd" d="M1132.07 381.791C1133.32 384.698 1133.95 386.873 1133.95 388.316C1133.95 390.072 1133.61 392.633 1132.94 396.001C1130.6 396.001 1109.61 396.001 1069.95 396.001C1068.31 391.284 1069.25 388.738 1072.78 388.362C1076.31 387.986 1079.24 387.646 1081.57 387.343L1110.85 375.967C1111.41 375.749 1112.07 375.969 1112.33 376.46C1112.33 376.468 1112.33 376.477 1112.34 376.485L1114.22 380.464C1117.48 381.792 1120.14 382.456 1122.18 382.456C1123.84 382.456 1126.13 381.872 1129.05 380.704L1129.05 380.704C1130.17 380.256 1131.5 380.685 1132.01 381.663C1132.03 381.705 1132.05 381.748 1132.07 381.791Z" fill="#E4E4E4"/>
<path fill-rule="evenodd" clip-rule="evenodd" d="M1027.09 381.791C1028.34 384.698 1028.96 386.873 1028.96 388.316C1028.96 390.072 1028.62 392.633 1027.95 396.001C1025.62 396.001 1004.62 396.001 964.959 396.001C963.322 391.284 964.267 388.738 967.794 388.362C971.321 387.986 974.251 387.646 976.584 387.343L1005.86 375.967C1006.43 375.749 1007.09 375.969 1007.34 376.46C1007.34 376.468 1007.35 376.477 1007.35 376.485L1009.23 380.464C1012.5 381.792 1015.15 382.456 1017.19 382.456C1018.85 382.456 1021.14 381.872 1024.06 380.704L1024.06 380.704C1025.18 380.256 1026.51 380.685 1027.02 381.663C1027.05 381.705 1027.07 381.748 1027.09 381.791Z" fill="#E4E4E4"/>
<path fill-rule="evenodd" clip-rule="evenodd" d="M1091.51 163.363L1073.64 224.374H1019.05L1027.19 163.363H1091.51Z" fill="#0062B7"/>
<path fill-rule="evenodd" clip-rule="evenodd" d="M1101.56 163.363C1107.44 178.723 1108.55 199.06 1104.91 224.374H1049.21L1033.89 163.363H1101.56Z" fill="#2196F3"/>
<path fill-rule="evenodd" clip-rule="evenodd" d="M1128.4 133.626L1103.94 133.706C1130.76 186.302 1144.74 213.84 1145.89 216.321C1148.47 221.902 1143 230.404 1140.67 234.972C1148.28 237.943 1147.47 226.941 1157.08 230.837C1165.85 234.394 1172.52 240.837 1182.66 235.388C1183.9 234.718 1185.27 232.196 1181.97 230.224C1173.75 225.314 1161.91 216.719 1160.31 213.89C1158.13 210.032 1147.49 183.277 1128.4 133.626ZM920.966 115.001C925.907 118.591 930.92 122.562 930.04 124.478C929.16 126.394 924.564 125.681 923.803 128.628C923.296 130.593 930.753 130.912 946.176 129.586L981.958 141.949L989.87 124.731L945.772 119.488C936.951 115.212 928.835 112.317 921.426 110.804C919.341 110.751 916.024 111.411 920.966 115.001Z" fill="#BA8B72"/>
<path fill-rule="evenodd" clip-rule="evenodd" d="M1061.41 66.0253L1042.26 67.1371C1037.54 104.321 1011.85 127.808 954.341 119.857L946.7 167.742C1000.45 173.797 1047.6 155.041 1057.26 104.258C1059.76 91.1122 1061.74 77.4312 1061.41 66.0253Z" fill="#B47D00"/>
<path fill-rule="evenodd" clip-rule="evenodd" d="M1070.87 61.1582L1070.85 61.1738L1041.84 66.9647C1041.84 110.02 1026.26 137.645 1018.04 169.219L1017.79 170.177L1096.15 170.177C1097.25 181.226 1097.93 192.582 1098.28 204.245H1156.95C1143.66 142.595 1115.6 94.8994 1072.77 61.1582H1070.87Z" fill="#F5B40A"/>
<path fill-rule="evenodd" clip-rule="evenodd" d="M1083.79 108.133C1085.81 135.233 1084.62 155.914 1080.22 170.177L1096.15 170.176C1094.01 148.77 1090.27 128.517 1084.2 109.418L1083.79 108.133Z" fill="black" fill-opacity="0.1"/>
</g>
<path fill-rule="evenodd" clip-rule="evenodd" d="M434.143 36.0667C439.411 45.8853 438.785 70.791 431.977 72.5459C429.262 73.2457 423.479 71.5315 417.592 67.9836L421.287 94.1232H399.47L406.98 59.1157C402.791 54.1991 399.957 48.1738 400.43 41.4223C401.795 21.9686 428.876 26.2481 434.143 36.0667Z" fill="#B28B67"/>
<path fill-rule="evenodd" clip-rule="evenodd" d="M443.808 22.4551C443.356 20.8671 442.141 19.5074 440.503 19.104C440.106 19.0062 439.696 18.9666 439.288 18.9831C439.141 18.989 439.1 19.0312 439.031 18.9287C438.98 18.8527 438.979 18.6671 438.958 18.5778C438.893 18.3001 438.812 18.0258 438.712 17.7587C438.369 16.8475 437.793 16.0411 437.099 15.3618C435.8 14.0909 434.046 13.2138 432.223 13.0552C431.226 12.9684 430.235 13.1304 429.292 13.455C428.804 13.623 428.331 13.8321 427.869 14.0634C427.731 14.133 427.28 14.4739 427.141 14.4519C426.987 14.4275 426.678 14.0451 426.553 13.9491C425.006 12.7625 423.096 12.2959 421.17 12.3099C418.995 12.3262 416.901 12.4349 415.088 13.7604C414.704 14.0411 414.338 14.3483 413.99 14.6718C413.807 14.8422 413.629 15.0189 413.46 15.2029C413.358 15.314 413.258 15.4275 413.163 15.5441C413 15.742 413.026 15.807 412.799 15.6689C411.926 15.1387 410.915 14.8907 409.896 15.0159C409.291 15.0903 408.702 15.2719 408.144 15.5109C407.953 15.5923 407.513 15.9168 407.31 15.92C407.109 15.9231 406.675 15.6222 406.468 15.5458C405.348 15.1326 404.142 15.0308 402.966 15.2217C401.752 15.4187 400.56 15.9028 399.532 16.5719C399.037 16.8937 398.606 17.2503 398.259 17.7288C398.11 17.9354 397.974 18.154 397.805 18.3455C397.706 18.4577 397.509 18.5728 397.456 18.7148C397.488 18.6298 396.129 18.1059 396 18.0724C395.317 17.8939 394.621 17.9301 393.952 18.1503C392.694 18.5643 391.612 19.4927 390.723 20.4446C390.267 20.9335 389.867 21.474 389.528 22.0498C389.365 22.3256 389.216 22.6092 389.08 22.899C389.014 23.0393 388.971 23.2149 388.884 23.3413C388.772 23.5042 388.697 23.5073 388.494 23.5784C387.465 23.9391 386.526 24.5496 385.811 25.3746C385.088 26.2092 384.619 27.237 384.422 28.3194C384.411 28.3832 384.404 28.6474 384.367 28.6819C384.316 28.7294 384.108 28.7084 384.03 28.7176C383.759 28.7494 383.49 28.7968 383.224 28.8597C382.734 28.9756 382.257 29.1462 381.806 29.3694C380.048 30.2393 378.791 31.87 378.176 33.705C377.53 35.6308 377.541 37.837 378.313 39.7268C378.438 40.0321 378.586 40.3284 378.76 40.6086C378.867 40.7807 378.902 40.7811 378.832 40.9616C378.755 41.1625 378.613 41.3576 378.522 41.5538C378.222 42.1942 378.012 42.8734 377.879 43.5671C377.662 44.705 377.555 45.9008 377.769 47.0474C377.868 47.5798 378.042 48.1002 378.306 48.5744C378.441 48.8162 378.599 49.0455 378.777 49.2576C378.87 49.3677 378.968 49.4729 379.071 49.5737C379.13 49.6312 379.207 49.6816 379.257 49.7459C379.379 49.9027 379.404 49.7738 379.341 50.004C379.254 50.3258 379.054 50.6433 378.932 50.9565C378.806 51.2792 378.692 51.6064 378.588 51.9368C378.378 52.6057 378.199 53.2868 378.088 53.9796C377.874 55.3098 377.912 56.7271 378.541 57.9478C378.81 58.47 379.196 58.9281 379.664 59.2844C379.893 59.4587 380.141 59.609 380.401 59.7324C380.535 59.7959 380.706 59.8231 380.767 59.9525C380.833 60.0916 380.735 60.3678 380.713 60.5233C380.52 61.8762 380.422 63.2967 380.825 64.6224C381.195 65.8436 382.011 66.9217 383.069 67.6355C385.124 69.0202 387.892 68.9421 390.051 67.8336C390.613 67.5446 391.14 67.1858 391.609 66.7626C392.805 68.3721 395.265 68.3211 397.012 67.8625C399.189 67.2912 400.936 65.7775 401.943 63.7886C403.319 65.4639 406.207 64.9203 407.161 63.1029C407.395 62.6581 407.533 62.1678 407.602 61.6717C407.637 61.4109 407.615 61.1477 407.642 60.8889C407.676 60.5591 407.896 60.2387 408.023 59.9197C408.269 59.2988 408.423 58.6575 408.429 57.9878C408.433 57.6381 408.388 57.2974 408.355 56.9505C408.325 56.6383 408.412 56.3474 408.461 56.0392C407.903 56.1312 407.222 55.9806 406.696 55.8187C406.18 55.6598 405.697 55.2414 405.332 54.8593C404.486 53.9719 403.97 52.8087 403.616 51.651C402.84 49.11 403.158 46.0614 405.714 44.6669C406.905 44.0172 410.472 44.0193 411.89 44.3404C413.381 44.678 415.071 47.968 415.154 48.2773C415.206 48.4687 415.18 48.7055 415.356 48.8331C415.742 49.1135 416.379 48.6269 416.664 48.3867C417.156 47.9722 417.507 47.4207 417.811 46.8617C418.473 45.6439 419.006 44.3379 419.383 43.0046C419.674 41.9767 419.86 40.9168 420.24 39.9151C420.618 38.9184 421.214 38.0275 422.14 37.4629C423.148 36.8487 424.303 36.5252 425.41 36.1392C426.507 35.7566 427.584 35.2891 428.435 34.4773C428.622 34.2988 428.803 34.1092 428.954 33.899C429.072 33.7331 429.19 33.4156 429.371 33.3104C429.652 33.1467 430.063 33.5723 430.306 33.7268C431.506 34.4891 432.508 35.5523 433.315 36.7138C434.119 37.869 434.778 38.9805 435.313 40.2704C435.71 41.227 435.958 42.4522 436.657 43.2362C436.969 43.5863 439.288 43.7981 440.038 43.4925C440.789 43.1868 441.631 42.3932 441.883 41.8959C442.141 41.3869 442.203 40.8277 442.093 40.2704C442.028 39.9425 441.895 39.6363 441.823 39.3143C441.762 39.0438 441.707 38.7881 441.575 38.5403C441.325 38.0707 440.899 37.7332 440.385 37.592C440.92 37.0987 441.363 36.5086 441.67 35.849C441.989 35.1636 442.259 34.3302 442.336 33.578C442.398 32.967 442.302 32.3341 441.967 31.809C441.616 31.2582 440.995 30.8989 440.457 30.5554C441.279 29.9126 441.982 29.131 442.56 28.2656C443.684 26.5827 444.379 24.4614 443.808 22.4551Z" fill="#4A312C"/>
<path fill-rule="evenodd" clip-rule="evenodd" d="M364.389 258.738C386.196 264.838 405.01 267.887 420.832 267.887C436.654 267.887 451.35 263.191 464.921 253.798C443.581 247.537 426.006 244.407 412.197 244.407C398.388 244.407 382.452 249.184 364.389 258.738Z" fill="#0062B7"/>
<path fill-rule="evenodd" clip-rule="evenodd" d="M439.709 276.679C439.499 276.363 439.322 276.019 439.181 275.647C436.266 267.938 389.576 184.777 384.925 169.573H437.491C441.027 181.133 456.945 253.676 459.185 268.15C466.253 290.981 480.806 364.92 482.663 370.042C484.618 375.431 473.621 381.044 470.691 374.42C466.029 363.879 454.919 334.713 449.973 316.904C445.335 300.208 441.559 285.188 439.709 276.679Z" fill="#B28B67"/>
<path fill-rule="evenodd" clip-rule="evenodd" d="M439.709 276.679C439.499 276.363 439.322 276.019 439.181 275.647C436.266 267.938 389.576 184.777 384.925 169.573H437.491C441.027 181.133 456.945 253.676 459.185 268.15C466.253 290.981 480.806 364.92 482.663 370.042C484.618 375.431 473.621 381.044 470.691 374.42C466.029 363.879 454.919 334.713 449.973 316.904C445.335 300.208 441.559 285.188 439.709 276.679Z" fill="black" fill-opacity="0.1"/>
<path fill-rule="evenodd" clip-rule="evenodd" d="M396.705 286.832C375.359 292.227 297.281 301.981 291.923 303.51C286.411 305.084 281.578 293.723 288.391 291.262C299.231 287.346 329.101 278.299 347.212 274.606C361.779 271.637 375.071 269.213 383.996 267.794C383.239 242.726 379.783 182.566 382.049 169.573H428.56C426.388 182.032 408.025 272.946 404.612 282.046C403.529 285.295 400.297 286.731 396.705 286.832Z" fill="#B28B67"/>
<path fill-rule="evenodd" clip-rule="evenodd" d="M288.886 288.237C286.035 287.707 283.947 287.559 282.619 287.793C281.005 288.078 278.697 288.762 275.694 289.846C276.025 291.719 278.992 308.55 284.598 340.338C289.167 340.886 291.375 339.715 291.222 336.827C291.07 333.939 290.968 331.536 290.917 329.617L297.241 304.304C297.363 303.817 297.067 303.323 296.58 303.202C296.571 303.199 296.563 303.198 296.555 303.196L292.629 302.332C290.947 299.931 289.961 297.912 289.673 296.275C289.438 294.946 289.652 293.016 290.312 290.484L290.312 290.484C290.566 289.512 289.984 288.519 289.012 288.266C288.97 288.255 288.928 288.245 288.886 288.237Z" fill="#E4E4E4"/>
<path fill-rule="evenodd" clip-rule="evenodd" d="M467.355 373.563C466.338 376.278 465.829 378.309 465.829 379.657C465.829 381.296 466.102 383.688 466.648 386.833C468.55 386.833 485.64 386.833 517.92 386.833C519.252 382.428 518.483 380.05 515.612 379.699C512.742 379.348 510.357 379.031 508.458 378.748L484.628 368.124C484.169 367.919 483.632 368.126 483.428 368.584C483.424 368.592 483.421 368.6 483.417 368.608L481.886 372.323C479.228 373.563 477.069 374.183 475.407 374.183C474.057 374.183 472.193 373.638 469.815 372.548L469.815 372.548C468.902 372.129 467.823 372.53 467.404 373.443C467.386 373.482 467.37 373.522 467.355 373.563Z" fill="#E4E4E4"/>
<path fill-rule="evenodd" clip-rule="evenodd" d="M382.197 169.573C402.693 163.709 422.086 163.709 440.376 169.573C446.739 198.605 462.201 210.128 464.92 254.639C434.012 269.996 395.833 243.687 364.017 258.663C354.926 237.715 367.653 187.267 382.197 169.573Z" fill="#2196F3"/>
<path fill-rule="evenodd" clip-rule="evenodd" d="M351.263 135.438L371.169 135.513C356.008 184.632 347.96 210.35 347.025 212.666C344.922 217.879 349.373 225.818 351.277 230.085C345.077 232.859 345.738 222.585 337.917 226.224C330.779 229.545 325.348 235.562 317.101 230.473C316.087 229.848 314.976 227.492 317.661 225.651C324.349 221.065 333.988 213.038 335.29 210.396C337.066 206.793 342.39 181.807 351.263 135.438ZM477.186 158.174L502.937 183.295C510.43 186.491 516.569 190.02 521.354 193.882C522.431 195.18 523.602 197.668 518.539 196.555C513.475 195.442 508.099 194.499 507.147 196.145C506.196 197.792 509 200.315 507.241 202.471C506.068 203.907 502.125 199.337 495.411 188.761L468.633 172.973L477.186 158.174Z" fill="#B28B67"/>
<path fill-rule="evenodd" clip-rule="evenodd" d="M411.919 78.9712L419.779 77.6229C432.162 121.395 495.784 151.231 499.69 167.594C501.122 173.595 496.804 176.628 499.034 178.456L488.817 185.936C487.087 183.917 483.395 187.609 475.684 185.026C467.974 182.443 411.919 130.801 411.919 78.9712Z" fill="#B47D00"/>
<path fill-rule="evenodd" clip-rule="evenodd" d="M397.939 69.8327L422.423 71.5448C424.426 71.6849 425.937 73.4225 425.796 75.4258L425.142 84.7385C424.215 142.732 457.737 157.516 450.273 180.771C444.111 199.968 385.132 220.605 374.926 201.787C370.794 194.169 368.92 184.955 368.707 174.938C366.1 182.634 364.036 189.26 362.519 194.815C359.901 204.396 349.751 205.919 349.751 209.61L336.38 205.919C337.287 200.904 330.983 198.463 332.673 187.26C340.246 137.066 360.593 100.682 393.714 78.1075L394.058 73.2064C394.198 71.2031 395.935 69.6927 397.939 69.8327Z" fill="#F5B40A"/>
<g clip-path="url(#clip1)">
<path fill-rule="evenodd" clip-rule="evenodd" d="M601.84 79.5402C607.634 90.3413 606.946 117.739 599.457 119.67C596.47 120.44 590.108 118.554 583.632 114.651L587.696 143.406H563.696L571.958 104.896C567.35 99.487 564.232 92.8588 564.753 85.4317C566.255 64.0312 596.045 68.7391 601.84 79.5402Z" fill="#EAC7A8"/>
<path fill-rule="evenodd" clip-rule="evenodd" d="M588.828 69.0269C595.562 69.6045 601.575 71.6579 603.28 72.8773C603.28 79.2525 602.044 81.1441 591.493 80.9773C588.901 82.3464 586.908 84.7037 584.832 87.7943C585.75 100.592 588.18 106.991 592.122 106.991C598.035 106.991 603.052 103.237 605.646 103.237C607.537 103.237 607.115 105.604 605.861 107.359C604.827 108.807 599.79 110.202 599.79 112.446C599.79 114.691 603.77 112.954 603.77 114.286C603.77 116.487 604.469 120.627 600.648 120.627C596.78 120.627 585.691 119.218 583.791 113.478C582.564 109.774 581.771 102.098 581.412 90.4502C581.178 90.4207 580.939 90.4064 580.696 90.4064C577.383 90.4064 574.696 93.0927 574.696 96.4064C574.696 98.0886 575.389 99.6091 576.504 100.699C575.116 102.658 573.56 104.705 571.777 106.818C565.079 102.799 559.109 90.0353 565.657 78.7347C567.467 73.1986 572.564 71.2416 577.404 69.8686C581.324 68.2288 585.393 68.0439 588.828 69.0269Z" fill="#4A312C"/>
<path fill-rule="evenodd" clip-rule="evenodd" d="M707.696 249.272C707.667 270.437 688.353 370.918 687.344 377.262C686.336 383.606 675.533 385.681 674.903 377.755C673.902 365.142 672.043 321.419 673.903 301.078C674.447 295.136 675.02 289.394 675.597 284.013C665.447 302.248 650.01 328.024 629.289 361.34L617.772 356.078C626.816 326.282 634.232 305.247 640.019 292.973C649.929 271.956 659.221 253.958 663.132 247.618C668.298 239.243 676.678 240.356 682.581 244.503C689.76 234.764 707.707 241.211 707.696 249.272Z" fill="#EAC7A8"/>
<path fill-rule="evenodd" clip-rule="evenodd" d="M618.596 339.532L658.123 245.894C667.593 230.661 694.142 248.993 690.913 257.828C683.582 277.886 646.296 342.821 644.111 348.796L618.596 339.532Z" fill="#0062B7"/>
<path fill-rule="evenodd" clip-rule="evenodd" d="M708.696 256.583C708.696 283.124 697.063 345.512 697.055 351.357L668.872 350.406C673.799 296.163 675.876 268.858 675.105 268.491C673.369 267.664 603.958 278.097 583.141 278.885C553.122 280.021 540.704 261.605 539.696 226.657H597.844C647.565 232.592 680.244 236.72 695.881 239.041C705.922 240.531 708.696 249.271 708.696 256.583Z" fill="#2196F3"/>
<path fill-rule="evenodd" clip-rule="evenodd" d="M616.215 353.142C614.407 355.769 613.323 357.802 612.964 359.241C612.528 360.991 612.183 363.617 611.929 367.119C613.959 367.625 632.201 372.173 666.656 380.764C669.25 376.417 669.062 373.674 666.091 372.535C663.121 371.396 660.66 370.423 658.708 369.616L636.099 351.934C635.664 351.594 635.036 351.671 634.696 352.106C634.69 352.113 634.684 352.121 634.678 352.128L632.055 355.687C628.888 356.303 626.418 356.39 624.645 355.948C623.204 355.589 621.359 354.511 619.111 352.714L619.111 352.714C618.248 352.024 616.989 352.165 616.3 353.028C616.27 353.065 616.242 353.103 616.215 353.142Z" fill="#E4E4E4"/>
<path fill-rule="evenodd" clip-rule="evenodd" d="M673.374 362.808C672.256 365.795 671.696 368.029 671.696 369.512C671.696 371.315 671.997 373.947 672.598 377.406C674.689 377.406 693.49 377.406 728.999 377.406C730.465 372.561 729.619 369.945 726.461 369.559C723.303 369.172 720.68 368.823 718.591 368.512L692.376 356.825C691.872 356.6 691.281 356.827 691.056 357.331C691.052 357.34 691.048 357.349 691.045 357.357L689.36 361.445C686.436 362.809 684.061 363.491 682.233 363.491C680.748 363.491 678.697 362.891 676.081 361.692L676.081 361.692C675.077 361.231 673.89 361.672 673.429 362.676C673.409 362.72 673.391 362.764 673.374 362.808Z" fill="#E4E4E4"/>
<path d="M722.196 377.406H676.196C674.263 377.406 672.696 378.973 672.696 380.906C672.696 382.839 674.263 384.406 676.196 384.406H722.196C724.129 384.406 725.696 382.839 725.696 380.906C725.696 378.973 724.129 377.406 722.196 377.406Z" fill="#393F82"/>
<path fill-rule="evenodd" clip-rule="evenodd" d="M536.696 232.406H643.696C649.219 232.406 653.696 236.883 653.696 242.406V291.406H530.696C528.487 291.406 526.696 289.615 526.696 287.406V242.406C526.696 236.883 531.173 232.406 536.696 232.406Z" fill="#393F82"/>
<path fill-rule="evenodd" clip-rule="evenodd" d="M643.696 232.406H645.89C650.787 232.406 654.964 235.953 655.758 240.786L677.696 374.406H667.011" fill="#393F82"/>
<path d="M672.696 394.406C682.637 394.406 690.696 386.347 690.696 376.406C690.696 366.465 682.637 358.406 672.696 358.406C662.755 358.406 654.696 366.465 654.696 376.406C654.696 386.347 662.755 394.406 672.696 394.406Z" fill="#191847"/>
<path fill-rule="evenodd" clip-rule="evenodd" d="M539.696 240.406C581.67 240.406 615.696 274.433 615.696 316.406C615.696 358.38 581.67 392.406 539.696 392.406C497.723 392.406 463.696 358.38 463.696 316.406C463.696 274.433 497.723 240.406 539.696 240.406ZM539.696 254.406C505.455 254.406 477.696 282.165 477.696 316.406C477.696 350.648 505.455 378.406 539.696 378.406C573.938 378.406 601.696 350.648 601.696 316.406C601.696 282.165 573.938 254.406 539.696 254.406Z" fill="#191847"/>
<path d="M543.696 250.406H535.696V382.406H543.696V250.406Z" fill="#191847"/>
<path d="M587.78 271.151L584.951 268.323C584.17 267.542 582.904 267.542 582.123 268.323L491.613 358.833C490.832 359.614 490.832 360.88 491.613 361.661L494.442 364.489C495.223 365.27 496.489 365.27 497.27 364.489L587.78 273.98C588.561 273.199 588.561 271.932 587.78 271.151Z" fill="#191847"/>
<path d="M605.696 318.406V314.406C605.696 313.302 604.801 312.406 603.696 312.406H475.696C474.592 312.406 473.696 313.302 473.696 314.406V318.406C473.696 319.511 474.592 320.406 475.696 320.406H603.696C604.801 320.406 605.696 319.511 605.696 318.406Z" fill="#191847"/>
<path d="M584.951 364.49L587.779 361.661C588.56 360.88 588.56 359.614 587.779 358.833L497.269 268.323C496.488 267.542 495.222 267.542 494.441 268.323L491.613 271.152C490.832 271.933 490.832 273.199 491.613 273.98L582.122 364.49C582.903 365.271 584.17 365.271 584.951 364.49Z" fill="#191847"/>
<path fill-rule="evenodd" clip-rule="evenodd" d="M501.205 203.406L521.696 207.472C501.088 245.877 490.037 266.232 488.541 268.536C485.177 273.721 488.316 283.223 489.476 288.227C482.201 289.921 485.07 278.971 475.863 281.257C467.46 283.344 460.336 288.699 452.5 281.477C451.537 280.589 450.832 277.814 454.116 276.39C462.299 272.843 474.388 266.203 476.349 263.624C479.022 260.108 487.307 240.036 501.205 203.406ZM703.884 172.661L703.513 173.206C700.425 177.754 697.535 182.526 698.773 184.112C700.06 185.761 703.789 183.94 705.263 186.623C706.245 188.411 699.959 190.549 686.404 193.039L659.266 213.846L647.696 199.023L683.931 183.11C690.278 176.785 696.408 171.978 702.319 168.688C704.087 168.125 707.106 167.955 703.884 172.661Z" fill="#EAC7A8"/>
<path fill-rule="evenodd" clip-rule="evenodd" d="M577.391 126.738L586.039 125.255C604.873 143.525 612.559 187.419 625.11 193.229C636.978 198.722 653.8 193.406 673.796 186.229L679.92 199.911C661.752 219.567 623.046 236.173 607.357 226.693C582.273 211.536 576.482 157.4 577.391 126.738Z" fill="#528A0A"/>
<path fill-rule="evenodd" clip-rule="evenodd" d="M539.696 235.406C574.368 235.406 599.872 235.406 616.208 235.406C619.704 235.406 619.045 230.358 618.54 227.81C612.707 198.41 589.938 166.718 589.938 124.867L567.868 121.406C549.614 150.765 543.301 186.911 539.696 235.406Z" fill="#C7D1D9"/>
<path fill-rule="evenodd" clip-rule="evenodd" d="M575.183 121.406C594.995 188.943 600.457 233.943 591.569 256.406H522.696C523.786 239.969 527.28 222.585 532.066 205.636C516.468 233.773 503.357 254.029 492.734 266.406L476.696 263.265C487.027 199.197 516.943 151.911 566.444 121.406L575.183 121.406Z" fill="#8BC34A"/>
</g>
<g clip-path="url(#clip2)">
<path fill-rule="evenodd" clip-rule="evenodd" d="M927.128 22.6958C916.927 22.6958 908.479 30.2077 907.012 40.0035C903.751 52.0229 899.499 79.0511 903.837 83.2904H931.275L931.283 83.1447C941.452 82.0191 949.362 73.3937 949.362 62.9203V43.0447C949.362 31.8063 940.255 22.6958 929.02 22.6958H927.128Z" fill="#A55728"/>
<path fill-rule="evenodd" clip-rule="evenodd" d="M910.436 35.1263C904.953 45.3492 905.604 71.2802 912.69 73.1073C915.516 73.8359 921.536 72.0511 927.662 68.3571L923.817 95.5729H946.524L938.708 59.1242C943.067 54.0052 946.018 47.7318 945.525 40.7024C944.104 20.4478 915.918 24.9035 910.436 35.1263Z" fill="#D4A181"/>
<path fill-rule="evenodd" clip-rule="evenodd" d="M928.546 23.6421C917.59 23.6421 914.132 28.7419 911.187 33.0717C913.389 40.6295 921.934 41.75 929.527 46.4611C930.421 45.7334 931.562 45.2975 932.805 45.2975C935.679 45.2975 938.009 47.6281 938.009 50.503C938.009 53.3779 935.679 55.7085 932.805 55.7085C932.726 55.7085 932.647 55.7067 932.568 55.7032C931.522 66.9452 931.941 79.7834 935.059 82.8309H962.497C964.026 56.2604 949.252 66.5497 949.252 41.5328C948.33 40.6326 947.46 39.7416 946.599 38.9732L946.629 38.2371C941.878 28.5071 935.85 23.6421 928.546 23.6421Z" fill="#A55728"/>
<path fill-rule="evenodd" clip-rule="evenodd" d="M948.416 174.129L901.978 291.705L870.832 391.105H858.533L908.041 174.129L948.416 174.129Z" fill="#D4A181"/>
<path fill-rule="evenodd" clip-rule="evenodd" d="M957.767 174.129C958.261 215.446 965.473 271.073 966.625 273.648C967.393 275.365 993.91 297.2 1046.17 339.152L1037.7 348.22C976.036 312.251 943.775 291.868 940.922 287.071C936.641 279.875 922.705 213.656 911.517 174.129H957.767Z" fill="#D4A181"/>
<path fill-rule="evenodd" clip-rule="evenodd" d="M1047.31 336.125C1050.15 337.131 1052.11 338.085 1053.19 338.987C1054.49 340.084 1056.22 341.903 1058.36 344.443C1057.09 345.96 1045.66 359.591 1024.06 385.336C1019.66 383.45 1018.28 381.245 1019.92 378.721C1021.56 376.196 1022.9 374.082 1023.94 372.378L1031.42 346.262C1031.56 345.759 1032.08 345.468 1032.59 345.612C1032.59 345.615 1032.6 345.617 1032.61 345.62L1036.6 346.885C1039.36 345.595 1041.3 344.288 1042.42 342.963C1043.32 341.886 1044.13 340.035 1044.85 337.408L1044.85 337.408C1045.13 336.4 1046.17 335.807 1047.18 336.085C1047.22 336.096 1047.27 336.11 1047.31 336.125Z" fill="#E4E4E4"/>
<path fill-rule="evenodd" clip-rule="evenodd" d="M875.868 386.516C876.927 389.343 877.456 391.458 877.456 392.861C877.456 394.568 877.172 397.059 876.603 400.333C874.624 400.333 856.836 400.333 823.239 400.333C821.853 395.747 822.653 393.271 825.641 392.905C828.629 392.54 831.111 392.209 833.087 391.915L857.89 380.854C858.367 380.641 858.927 380.855 859.139 381.333C859.143 381.341 859.146 381.349 859.15 381.357L860.744 385.226C863.51 386.517 865.758 387.163 867.487 387.163C868.892 387.163 870.832 386.595 873.308 385.46L873.308 385.46C874.258 385.024 875.381 385.441 875.816 386.392C875.835 386.433 875.853 386.474 875.868 386.516Z" fill="#E4E4E4"/>
<path fill-rule="evenodd" clip-rule="evenodd" d="M917.194 380.867L858.718 374.519L905.84 174.129H954.43L917.194 380.867Z" fill="#528A0A"/>
<path fill-rule="evenodd" clip-rule="evenodd" d="M1034.08 324.522L995.723 369.938C955.323 325.799 931.769 296.999 925.063 283.536C918.356 270.074 912.327 233.605 906.976 174.129H965.94C968.863 226.453 970.833 253.833 971.851 256.268C972.869 258.702 993.611 281.454 1034.08 324.522Z" fill="#8BC34A"/>
<path fill-rule="evenodd" clip-rule="evenodd" d="M947.365 74.751L920.882 78.8472C920.882 93.7452 909.033 107.684 901.536 119.678C889.884 138.321 869.148 158.986 882.443 186.683C894.422 211.639 925.625 215.692 976.052 198.841C976.052 185.399 965.007 171.886 964.655 155.541C964.32 139.982 961.412 92.8393 949.274 76.915C949.054 76.1974 948.829 75.4752 948.602 74.751L947.762 75.1466L947.365 74.751Z" fill="#E51111"/>
<path fill-rule="evenodd" clip-rule="evenodd" d="M916.377 179.607C914.606 170.464 913.457 164.36 912.93 161.295C898.821 177.243 890.671 185.31 888.478 185.495C884.354 185.843 881.307 182.185 880.439 183.213C879.005 187.472 883.056 198.133 890.798 199.684C894.495 200.424 900.216 192.797 902.573 190.095C903.5 189.032 908.102 185.536 916.377 179.607ZM892.006 130.859C888.349 130.859 886.384 132.372 884.222 135.424C882.059 138.475 880.013 152.867 883.485 152.867C886.957 152.867 901.503 147.304 901.503 143.563C901.503 139.823 891.578 138.239 891.578 135.424C891.578 132.608 895.663 130.859 892.006 130.859Z" fill="#D4A181"/>
<path fill-rule="evenodd" clip-rule="evenodd" d="M923.762 193.519L923.877 193.937C924.057 194.581 924.24 195.234 924.425 195.898C965.865 166.925 965.882 131.813 953.555 92.458C962.847 131.203 959.066 163.879 923.762 193.519Z" fill="black" fill-opacity="0.2"/>
</g>
<g clip-path="url(#clip3)">
<path fill-rule="evenodd" clip-rule="evenodd" d="M770.871 14.4669C765.076 25.2681 765.765 52.666 773.254 54.5965C776.241 55.3663 782.603 53.4806 789.079 49.5776L785.015 78.333H809.015L800.753 39.8223C805.361 34.4137 808.479 27.7855 807.958 20.3585C806.456 -1.04201 776.666 3.66582 770.871 14.4669Z" fill="#915B3C"/>
<path fill-rule="evenodd" clip-rule="evenodd" d="M789.015 3.33301C776.146 3.33301 771.266 8.63923 771.015 13.333C776.529 14.8486 786.165 15.4322 800.015 15.333V16.333L788.015 17.333L786.015 23.333C789.197 23.0955 791.47 25.278 793.285 28.2001C794.069 27.6609 795.007 27.333 796.015 27.333C798.776 27.333 801.015 29.7954 801.015 32.333C801.015 34.9726 799.768 37.0137 797.988 37.8797C798.939 39.7388 799.895 41.088 801.015 41.333C805.337 40.8958 811.015 30.1535 811.015 21.333C811.015 11.6785 803.333 3.33301 789.015 3.33301Z" fill="#4A312C"/>
<path fill-rule="evenodd" clip-rule="evenodd" d="M817.015 161.333L780.384 287.56L763.154 382.333H745.861L763.124 161.333H817.015Z" fill="#915B3C"/>
<path fill-rule="evenodd" clip-rule="evenodd" d="M817.015 161.333L780.384 287.56L763.154 382.333H745.861L763.124 161.333H817.015Z" fill="black" fill-opacity="0.1"/>
<path fill-rule="evenodd" clip-rule="evenodd" d="M833.477 161.333C830.921 226.907 831.929 262.673 832.501 268.631C833.073 274.589 836.321 314.489 858.451 384.333H840.465C811.157 317.33 800.926 277.429 797.565 268.631C794.203 259.833 784.275 224.067 769.781 161.333H833.477Z" fill="#915B3C"/>
<path fill-rule="evenodd" clip-rule="evenodd" d="M817.801 161.333C808.273 204.768 791.793 274.101 768.361 369.333H743.068C741.2 271.587 749.147 207.254 762.91 161.333H817.801Z" fill="#B47D00"/>
<path fill-rule="evenodd" clip-rule="evenodd" d="M833.605 161.333C831.102 226.907 837.589 291.51 857.685 370.354H830.698C801.337 304.351 780.292 240.067 765.91 161.333H833.605Z" fill="#F5B40A"/>
<path fill-rule="evenodd" clip-rule="evenodd" d="M861.015 397.333L860.022 381.333C854.212 383.032 846.934 382.366 838.189 379.333C828.786 385.994 816.949 390.542 802.677 392.977C801.589 393.163 800.857 394.196 801.042 395.285C801.054 395.356 801.07 395.425 801.09 395.494L802.462 400.333H838.189H859.03L861.015 397.333Z" fill="#191847"/>
<path fill-rule="evenodd" clip-rule="evenodd" d="M767.015 397.333L766.022 381.333C760.212 383.032 752.934 382.366 744.189 379.333C734.786 385.994 722.949 390.542 708.677 392.977C707.589 393.163 706.857 394.196 707.042 395.285C707.054 395.356 707.07 395.425 707.09 395.494L708.462 400.333H744.189H765.03L767.015 397.333Z" fill="#191847"/>
<path fill-rule="evenodd" clip-rule="evenodd" d="M854.706 149.353L833.809 149.435C846.712 191.089 853.678 213.19 854.706 215.739C857.02 221.473 852.124 230.207 850.03 234.9C856.85 237.952 856.123 226.65 864.726 230.652C872.579 234.306 878.553 240.925 887.625 235.327C888.741 234.639 889.963 232.048 887.01 230.023C879.652 224.977 869.049 216.148 867.616 213.241C865.663 209.278 861.359 187.982 854.706 149.353ZM732.233 148.544L700.335 171.968C691.683 174.303 684.455 177.207 678.651 180.681C677.28 181.931 675.622 184.461 681.309 184.024C686.995 183.587 692.996 183.382 693.781 185.322C694.566 187.261 691.124 189.581 692.711 192.198C693.768 193.943 698.763 189.568 707.697 179.074L739.285 165.975L732.233 148.544Z" fill="#915B3C"/>
<path fill-rule="evenodd" clip-rule="evenodd" d="M795.319 61.6651L786.672 60.1819C754.589 87.8973 741.411 141.142 702.085 169.348L711.55 181.081C779.774 172.634 796.684 107.688 795.319 61.6651Z" fill="#0062B7"/>
<path fill-rule="evenodd" clip-rule="evenodd" d="M833.015 170.333C798.343 170.333 772.839 170.333 756.503 170.333C753.007 170.333 753.666 165.285 754.171 162.737C760.004 133.337 782.773 101.645 782.773 59.7937L804.843 56.333C823.097 85.6914 829.41 121.838 833.015 170.333Z" fill="#C7D1D9"/>
<path fill-rule="evenodd" clip-rule="evenodd" d="M806.504 56.3331C805.759 56.3331 805.076 56.3797 804.456 56.473L797.543 56.8678C777.72 124.048 772.253 168.87 781.142 191.333L841.363 191.335C844.931 199.654 848.345 206.653 851.605 212.333H868.014C869.558 162.4 857.687 120.019 832.399 85.1906C835.604 84.2701 838.143 82.1211 840.014 78.7443C848.081 64.1892 845.167 56.1755 836.547 53.5413C827.926 50.9072 820.239 56.3331 806.504 56.3331Z" fill="#2196F3"/>
<path fill-rule="evenodd" clip-rule="evenodd" d="M819.015 191.333L841.363 191.334C837.201 181.629 832.83 170.128 828.25 156.832C826.356 172.677 823.278 184.178 819.015 191.333Z" fill="black" fill-opacity="0.1"/>
</g>
<g clip-path="url(#clip4)">
<path fill-rule="evenodd" clip-rule="evenodd" d="M147.642 23.3069C153.316 33.8513 152.642 60.5979 145.308 62.4825C142.384 63.234 136.154 61.3931 129.813 57.5829L133.793 85.6548H110.292L118.382 48.0596C113.87 42.7796 110.817 36.3089 111.327 29.0584C112.797 8.16666 141.967 12.7626 147.642 23.3069Z" fill="#D4A181"/>
<path fill-rule="evenodd" clip-rule="evenodd" d="M116.576 52.7633C113.627 39.6808 105.224 30.7629 106.507 24.9156C107.363 21.0174 109.643 18.5933 113.348 17.6432C115.264 9.91472 121.444 6.62751 131.888 7.78154C147.555 9.51258 157.116 15.9988 152.987 30.2714C149.191 30.2714 144.609 28.9028 138.273 31.2476C136.262 31.9916 134.824 34.2988 133.959 38.1692H131.096C128.317 33.5761 125.576 31.8883 122.875 33.1057C120.174 34.3231 119.56 37.2802 121.033 41.977L119.623 52.7633H116.576Z" fill="#4A312C"/>
<path fill-rule="evenodd" clip-rule="evenodd" d="M102.458 166.682L139.306 286.781L157.156 388.918H171.152L152.29 166.682H102.458Z" fill="#D4A181"/>
<path fill-rule="evenodd" clip-rule="evenodd" d="M102.458 166.682L139.306 286.781L157.156 388.918H171.152L152.29 166.682H102.458Z" fill="black" fill-opacity="0.1"/>
<path fill-rule="evenodd" clip-rule="evenodd" d="M89.2758 166.682C91.7786 232.623 88.8331 266.636 88.273 272.627C87.7128 278.618 80.0424 317.465 61.8838 390.929L76.7972 385.823C105.495 318.445 115.275 283.427 118.566 274.58C121.857 265.732 130.599 229.766 144.792 166.682H89.2758Z" fill="#D4A181"/>
<path fill-rule="evenodd" clip-rule="evenodd" d="M61.9958 385.749C60.9003 388.664 60.3525 390.846 60.3525 392.293C60.3525 394.054 60.6467 396.623 61.235 400C63.2834 400 81.6929 400 116.463 400C117.898 395.27 117.07 392.716 113.978 392.339C110.886 391.962 108.317 391.621 106.272 391.317L80.6022 379.908C80.1083 379.689 79.5294 379.91 79.3092 380.402C79.3054 380.411 79.3018 380.419 79.2983 380.428L77.6482 384.418C74.7857 385.75 72.4596 386.415 70.67 386.415C69.2159 386.415 67.2079 385.83 64.6458 384.659L64.6458 384.659C63.6626 384.21 62.5002 384.64 62.0494 385.62C62.03 385.662 62.0121 385.705 61.9958 385.749Z" fill="#E4E4E4"/>
<path fill-rule="evenodd" clip-rule="evenodd" d="M154.04 385.749C152.944 388.664 152.396 390.846 152.396 392.293C152.396 394.054 152.691 396.623 153.279 400C155.327 400 173.737 400 208.507 400C209.942 395.27 209.114 392.716 206.022 392.339C202.93 391.962 200.361 391.621 198.316 391.317L172.646 379.908C172.152 379.689 171.573 379.91 171.353 380.402C171.349 380.411 171.346 380.419 171.342 380.428L169.692 384.418C166.83 385.75 164.504 386.415 162.714 386.415C161.26 386.415 159.252 385.83 156.69 384.659L156.69 384.659C155.707 384.21 154.544 384.64 154.093 385.62C154.074 385.662 154.056 385.705 154.04 385.749Z" fill="#E4E4E4"/>
<path fill-rule="evenodd" clip-rule="evenodd" d="M97.5615 166.682L113.229 227.871H161.082L153.947 166.682H97.5615Z" fill="#B47D00"/>
<path fill-rule="evenodd" clip-rule="evenodd" d="M88.7494 166.682C83.5944 182.087 82.6152 202.484 85.8119 227.871H134.645L148.072 166.682H88.7494Z" fill="#F5B40A"/>
<path fill-rule="evenodd" clip-rule="evenodd" d="M49.1002 144.229L69.1656 148.198C48.9865 185.69 38.1648 205.561 36.7005 207.81C33.4058 212.872 36.4798 222.148 37.6153 227.033C30.4918 228.686 33.3011 217.997 24.2864 220.229C16.0582 222.266 9.08168 227.494 1.40922 220.443C0.46594 219.576 -0.224588 216.867 2.99154 215.477C11.0041 212.015 22.842 205.532 24.7615 203.015C27.3791 199.583 35.492 179.987 49.1002 144.229ZM247.563 114.215L247.199 114.746C244.175 119.186 241.345 123.844 242.557 125.392C243.818 127.003 247.47 125.225 248.912 127.844C249.874 129.589 243.719 131.677 230.446 134.108L203.873 154.42L192.544 139.95L228.025 124.415C234.24 118.24 240.242 113.547 246.03 110.336C247.761 109.786 250.718 109.62 247.563 114.215Z" fill="#D4A181"/>
<path fill-rule="evenodd" clip-rule="evenodd" d="M123.702 69.3832L132.169 67.9353C150.612 85.7711 158.138 128.621 170.428 134.293C182.048 139.656 198.521 134.466 218.101 127.459L224.097 140.816C206.307 160.005 168.406 176.217 153.044 166.962C128.482 152.165 122.812 99.316 123.702 69.3832Z" fill="#A10000"/>
<path fill-rule="evenodd" clip-rule="evenodd" d="M86.791 175.468C120.741 175.468 145.715 175.468 161.71 175.468C165.134 175.468 164.489 170.539 163.994 168.052C158.282 139.351 135.987 108.412 135.987 67.5562L114.377 64.1777C96.5021 92.8382 90.3208 128.125 86.791 175.468Z" fill="#C7D1D9"/>
<path fill-rule="evenodd" clip-rule="evenodd" d="M121.539 64.1777C140.939 130.109 146.287 174.039 137.584 195.968H70.1444C71.2115 179.922 74.6329 162.952 79.3191 146.406C64.046 173.873 51.208 193.648 40.8053 205.731L25.1016 202.664C35.2172 140.119 64.5108 93.957 112.982 64.1777L121.539 64.1777Z" fill="#E51111"/>
</g>
<path fill-rule="evenodd" clip-rule="evenodd" d="M284.552 13.6295C290.346 24.4307 289.658 51.8286 282.169 53.7591C279.182 54.5289 272.82 52.6432 266.344 48.7402L270.408 77.4956H246.408L254.67 38.9849C250.062 33.5763 246.944 26.9481 247.465 19.5211C248.967 -1.87942 278.757 2.82842 284.552 13.6295Z" fill="#B28B67"/>
<path fill-rule="evenodd" clip-rule="evenodd" d="M248.416 14.9794C253.362 -8.82637 285.45 5.56782 291.63 1.72252C292.979 9.98384 288.56 16.626 273.002 15.1471C270.158 17.1729 267.993 20.5436 265.396 24.8329C264.773 24.6144 264.105 24.4957 263.408 24.4957C260.094 24.4957 257.408 27.182 257.408 30.4957C257.408 32.1446 258.073 33.6381 259.15 34.7227C257.779 36.7041 256.244 38.7731 254.488 40.9069C248.215 37.0451 243.457 26.2121 248.259 15.3274L248.416 14.9794Z" fill="#4A312C"/>
<path fill-rule="evenodd" clip-rule="evenodd" d="M238.408 160.496L275.039 286.723L292.268 381.496H309.561L292.299 160.496H238.408Z" fill="#B28B67"/>
<path fill-rule="evenodd" clip-rule="evenodd" d="M238.408 160.496L275.039 286.723L292.268 381.496H309.561L292.299 160.496H238.408Z" fill="black" fill-opacity="0.1"/>
<path fill-rule="evenodd" clip-rule="evenodd" d="M221.946 160.496C224.502 226.07 223.494 261.836 222.922 267.793C222.35 273.751 219.102 313.652 196.972 383.496H214.958C244.266 316.493 254.497 276.592 257.858 267.793C261.22 258.995 271.147 223.229 285.641 160.496H221.946Z" fill="#B28B67"/>
<path fill-rule="evenodd" clip-rule="evenodd" d="M237.622 160.496C247.15 203.931 263.63 273.264 287.061 368.496H312.354C314.223 270.749 306.276 206.416 292.513 160.496H237.622Z" fill="#A10000"/>
<path fill-rule="evenodd" clip-rule="evenodd" d="M221.818 160.496C224.321 226.07 217.834 290.673 197.738 369.517H224.725C254.086 303.513 275.131 239.229 289.513 160.496H221.818Z" fill="#E51111"/>
<path fill-rule="evenodd" clip-rule="evenodd" d="M194.408 396.496L195.401 380.496C201.211 382.196 208.489 381.529 217.234 378.496C226.637 385.157 238.474 389.705 252.745 392.14C253.834 392.326 254.566 393.359 254.381 394.448C254.368 394.519 254.353 394.589 254.333 394.657L252.961 399.496H217.234H196.393L194.408 396.496Z" fill="#191847"/>
<path fill-rule="evenodd" clip-rule="evenodd" d="M288.408 396.496L289.401 380.496C295.211 382.196 302.489 381.529 311.234 378.496C320.637 385.157 332.474 389.705 346.745 392.14C347.834 392.326 348.566 393.359 348.381 394.448C348.368 394.519 348.353 394.589 348.333 394.657L346.961 399.496H311.234H290.393L288.408 396.496Z" fill="#191847"/>
<path fill-rule="evenodd" clip-rule="evenodd" d="M370.964 101.903C375.297 101.011 385.872 93.1462 387.694 94.7431C390.39 97.1057 387.986 104.36 385.154 107.969C379.861 114.713 375.478 117.02 364.646 120.04C358.983 121.619 352.859 124.784 346.276 129.536L345.408 114.235L360.654 105.86C362.794 97.7194 365.351 93.6238 368.326 93.5728C370.612 92.5093 366.631 102.795 370.964 101.903ZM344.723 67.037C341.923 72.0059 339.202 77.3583 340.628 78.8891C342.054 80.4199 345.611 78.2815 347.312 80.8249C348.447 82.5205 342.371 85.1992 329.085 88.8608L303.864 111.953L291.046 98.1958L325.756 79.1854C331.528 72.3311 337.215 67.0077 342.817 63.2154C344.529 62.5007 347.522 62.0682 344.723 67.037Z" fill="#997659"/>
<mask id="mask0" mask-type="alpha" maskUnits="userSpaceOnUse" x="269" y="83" width="58" height="32">
<path fill-rule="evenodd" clip-rule="evenodd" d="M275.266 90.246C287.294 92.021 303.708 92.021 322.511 83.8818L326.851 99.908C313.213 109.737 295.12 116.722 280.695 114.02C269.328 111.891 265.679 97.1552 275.266 90.246Z" fill="white"/>
</mask>
<g mask="url(#mask0)">
<path fill-rule="evenodd" clip-rule="evenodd" d="M274.142 93.9613C286.299 93.8328 302.511 91.2651 319.81 80.2846L326.603 95.4346C314.671 107.276 297.894 117.006 283.224 116.594C271.663 116.269 265.754 102.285 274.142 93.9613Z" fill="#528A0A"/>
</g>
<mask id="mask1" mask-type="alpha" maskUnits="userSpaceOnUse" x="209" y="55" width="157" height="146">
<path fill-rule="evenodd" clip-rule="evenodd" d="M274.952 55.4956C276.483 75.1644 284.188 96.841 290.512 118.256C303.418 121.476 325.063 117.68 355.444 106.869C362.98 122.459 366.463 133.574 365.895 140.213C339.829 153.828 317.489 159.898 299.084 160.297C299.676 171.213 298.348 181.606 293.882 191.102C284.703 210.62 230.953 192.544 212.881 196.102C201.563 159.347 223.446 144.41 223.463 120.892C223.483 95.1378 244.162 55.4956 247.205 55.4956H274.952Z" fill="white"/>
</mask>
<g mask="url(#mask1)">
<path fill-rule="evenodd" clip-rule="evenodd" d="M274.952 55.4956C276.483 75.1644 284.188 96.841 290.512 118.256C303.418 121.476 325.063 117.68 355.444 106.869C362.98 122.459 366.463 133.574 365.895 140.213C339.829 153.828 317.489 159.898 299.084 160.297C299.676 171.213 298.348 181.606 293.882 191.102C284.703 210.62 230.953 192.544 212.881 196.102C201.563 159.347 223.446 144.41 223.463 120.892C223.483 95.1378 244.162 55.4956 247.205 55.4956H274.952Z" fill="#8BC34A"/>
</g>
<defs>
<clipPath id="clip0">
<rect width="268" height="396" fill="white" transform="matrix(-1 0 0 1 1184.64 0.000488281)"/>
</clipPath>
<clipPath id="clip1">
<rect width="280.761" height="326.38" fill="white" transform="translate(450.421 68.1562)"/>
</clipPath>
<clipPath id="clip2">
<rect width="237" height="379" fill="white" transform="matrix(-1 0 0 1 1059.58 21.333)"/>
</clipPath>
<clipPath id="clip3">
<rect width="213.206" height="398.31" fill="white" transform="matrix(-1 0 0 1 888.902 2.02295)"/>
</clipPath>
<clipPath id="clip4">
<rect width="248" height="393" fill="white" transform="translate(0 7)"/>
</clipPath>
</defs>
</svg>
